<svg xmlns="http://www.w3.org/2000/svg" viewBox="0 0 181.48 56" width="181.48" height="56" aria-label="HarborOS">
  <g transform="translate(6 6) scale(0.44)">
    <circle cx="50" cy="50" r="30" stroke="#FFFFFF" stroke-width="5" fill="none"/>
    <circle cx="50" cy="50" r="8" stroke="#FFFFFF" stroke-width="4" fill="none"/>
    <line x1="50" y1="20" x2="50" y2="8" stroke="#FFFFFF" stroke-width="5" stroke-linecap="round"/>
    <line x1="50" y1="80" x2="50" y2="92" stroke="#FFFFFF" stroke-width="5" stroke-linecap="round"/>
    <line x1="20" y1="50" x2="8" y2="50" stroke="#FFFFFF" stroke-width="5" stroke-linecap="round"/>
    <line x1="80" y1="50" x2="92" y2="50" stroke="#FFFFFF" stroke-width="5" stroke-linecap="round"/>
    <line x1="28.8" y1="28.8" x2="20.2" y2="20.2" stroke="#FFFFFF" stroke-width="5" stroke-linecap="round"/>
    <line x1="71.2" y1="71.2" x2="79.8" y2="79.8" stroke="#FFFFFF" stroke-width="5" stroke-linecap="round"/>
    <line x1="28.8" y1="71.2" x2="20.2" y2="79.8" stroke="#FFFFFF" stroke-width="5" stroke-linecap="round"/>
    <line x1="71.2" y1="28.8" x2="79.8" y2="20.2" stroke="#FFFFFF" stroke-width="5" stroke-linecap="round"/>
  </g>
  <path d="M68.378 40.430L62.156 40.430Q61.646 40.430 61.646 40.056L61.646 40.056Q61.646 39.750 62.088 39.648L62.088 39.648L62.870 39.512Q63.584 39.376 63.805 39.138Q64.026 38.900 64.026 38.186L64.026 38.186L64.026 18.194Q64.026 17.480 63.805 17.242Q63.584 17.004 62.870 16.868L62.870 16.868L62.088 16.732Q61.646 16.630 61.646 16.324L61.646 16.324Q61.646 15.950 62.156 15.950L62.156 15.950L68.378 15.950Q68.888 15.950 68.888 16.358L68.888 16.358Q68.888 16.664 68.514 16.732L68.514 16.732L67.596 16.868Q66.882 16.970 66.661 17.242Q66.440 17.514 66.440 18.228L66.440 18.228L66.440 26.762Q66.440 27.238 66.916 27.238L66.916 27.238L73.648 27.238Q74.124 27.238 74.124 26.762L74.124 26.762L74.124 18.228Q74.124 17.514 73.903 17.242Q73.682 16.970 72.968 16.868L72.968 16.868L72.050 16.732Q71.676 16.664 71.676 16.358L71.676 16.358Q71.676 15.950 72.186 15.950L72.186 15.950L78.408 15.950Q78.918 15.950 78.918 16.324L78.918 16.324Q78.918 16.630 78.476 16.732L78.476 16.732L77.694 16.868Q76.980 17.004 76.759 17.242Q76.538 17.480 76.538 18.194L76.538 18.194L76.538 38.186Q76.538 38.900 76.759 39.138Q76.980 39.376 77.694 39.512L77.694 39.512L78.476 39.648Q78.918 39.750 78.918 40.056L78.918 40.056Q78.918 40.430 78.408 40.430L78.408 40.430L72.186 40.430Q71.676 40.430 71.676 40.022L71.676 40.022Q71.676 39.716 72.050 39.648L72.050 39.648L72.968 39.512Q73.682 39.410 73.903 39.138Q74.124 38.866 74.124 38.152L74.124 38.152L74.124 28.734Q74.124 28.258 73.648 28.258L73.648 28.258L66.916 28.258Q66.440 28.258 66.440 28.734L66.440 28.734L66.440 38.152Q66.440 38.866 66.661 39.138Q66.882 39.410 67.596 39.512L67.596 39.512L68.514 39.648Q68.888 39.716 68.888 40.022L68.888 40.022Q68.888 40.430 68.378 40.430L68.378 40.430ZM83.236 40.736L83.236 40.736Q81.808 40.736 80.890 39.835Q79.972 38.934 79.972 37.438L79.972 37.438Q79.972 35.976 80.890 34.667Q81.808 33.358 83.406 32.304Q85.004 31.250 87.044 30.604L87.044 30.604Q87.486 30.468 87.486 30.026L87.486 30.026L87.486 26.932Q87.486 25.300 86.976 24.603Q86.466 23.906 85.582 23.906L85.582 23.906Q84.732 23.906 84.035 24.671Q83.338 25.436 83.032 27.238L83.032 27.238Q82.862 28.326 82.301 28.819Q81.740 29.312 81.162 29.312L81.162 29.312Q80.210 29.312 80.210 28.360L80.210 28.360Q80.210 27.374 80.771 26.405Q81.332 25.436 82.250 24.637Q83.168 23.838 84.256 23.362Q85.344 22.886 86.432 22.886L86.432 22.886Q89.798 22.886 89.798 26.796L89.798 26.796L89.798 37.200Q89.798 38.628 90.512 38.628L90.512 38.628Q90.954 38.628 91.328 38.033Q91.702 37.438 91.702 36.010L91.702 36.010Q91.702 35.466 92.144 35.466L92.144 35.466Q92.552 35.466 92.552 36.044L92.552 36.044Q92.552 38.526 91.685 39.631Q90.818 40.736 89.730 40.736L89.730 40.736Q88.914 40.736 88.438 40.073Q87.962 39.410 87.792 38.492L87.792 38.492Q87.758 38.152 87.503 38.135Q87.248 38.118 87.010 38.458L87.010 38.458Q86.194 39.580 85.344 40.158Q84.494 40.736 83.236 40.736ZM84.154 39.172L84.154 39.172Q85.038 39.172 85.786 38.543Q86.534 37.914 87.010 36.860Q87.486 35.806 87.486 34.480L87.486 34.480L87.486 31.998Q87.486 31.352 86.772 31.624L86.772 31.624Q84.698 32.372 83.559 33.681Q82.420 34.990 82.420 36.826L82.420 36.826Q82.420 39.172 84.154 39.172ZM97.958 25.266L97.958 25.266Q99.352 22.886 101.324 22.886L101.324 22.886Q102.446 22.886 102.990 23.549Q103.534 24.212 103.534 25.028L103.534 25.028Q103.534 25.674 103.211 26.082Q102.888 26.490 102.208 26.490L102.208 26.490Q101.664 26.490 101.409 26.235Q101.154 25.980 101.001 25.640Q100.848 25.300 100.644 25.045Q100.440 24.790 99.964 24.790L99.964 24.790Q99.352 24.790 98.808 25.521Q98.264 26.252 97.907 27.476Q97.550 28.700 97.550 30.264L97.550 30.264L97.550 38.152Q97.550 38.866 97.771 39.172Q97.992 39.478 98.706 39.546L98.706 39.546L99.624 39.648Q99.998 39.716 99.998 40.022L99.998 40.022Q99.998 40.430 99.488 40.430L99.488 40.430L93.742 40.430Q93.232 40.430 93.232 40.056L93.232 40.056Q93.232 39.750 93.674 39.648L93.674 39.648L94.082 39.580Q94.796 39.444 95.017 39.155Q95.238 38.866 95.238 38.152L95.238 38.152L95.238 26.728Q95.238 26.116 95.051 25.895Q94.864 25.674 94.388 25.606L94.388 25.606L93.674 25.504Q93.232 25.470 93.232 25.130L93.232 25.130Q93.232 24.858 93.776 24.756L93.776 24.756Q94.830 24.586 95.391 24.212Q95.952 23.838 96.564 23.294L96.564 23.294Q96.870 22.988 97.074 22.988L97.074 22.988Q97.380 22.988 97.380 23.396L97.380 23.396L97.380 25.232Q97.380 25.470 97.584 25.521Q97.788 25.572 97.958 25.266ZM110.538 40.736L110.538 40.736Q109.144 40.736 107.852 39.852L107.852 39.852Q107.104 39.342 106.492 40.124L106.492 40.124Q106.152 40.498 105.982 40.617Q105.812 40.736 105.642 40.736L105.642 40.736Q105.268 40.736 105.370 40.260L105.370 40.260Q105.506 39.478 105.574 38.254Q105.642 37.030 105.642 34.990L105.642 34.990L105.642 18.670Q105.642 18.058 105.455 17.837Q105.268 17.616 104.792 17.548L104.792 17.548L104.078 17.446Q103.704 17.378 103.704 17.038L103.704 17.038Q103.704 16.698 104.078 16.630L104.078 16.630Q105.030 16.426 105.676 16.154Q106.322 15.882 106.764 15.610L106.764 15.610Q107.308 15.270 107.580 15.270L107.580 15.270Q107.954 15.270 107.954 15.814L107.954 15.814L107.954 24.212Q107.954 24.484 108.175 24.569Q108.396 24.654 108.668 24.382L108.668 24.382Q110.130 22.886 111.864 22.886L111.864 22.886Q113.428 22.886 114.635 23.923Q115.842 24.960 116.539 26.796Q117.236 28.632 117.236 31.114L117.236 31.114Q117.236 33.936 116.352 36.112Q115.468 38.288 113.955 39.512Q112.442 40.736 110.538 40.736ZM110.470 39.886L110.470 39.886Q112.374 39.886 113.547 37.642Q114.720 35.398 114.720 31.590L114.720 31.590Q114.720 28.088 113.700 26.252Q112.680 24.416 110.810 24.416L110.810 24.416Q109.654 24.416 108.804 25.368Q107.954 26.320 107.954 28.020L107.954 28.020L107.954 36.588Q107.954 38.118 108.651 39.002Q109.348 39.886 110.470 39.886ZM125.498 40.736L125.498 40.736Q123.764 40.736 122.387 39.563Q121.010 38.390 120.194 36.350Q119.378 34.310 119.378 31.794L119.378 31.794Q119.378 29.278 120.194 27.272Q121.010 25.266 122.404 24.076Q123.798 22.886 125.498 22.886L125.498 22.886Q127.232 22.886 128.609 24.076Q129.986 25.266 130.802 27.272Q131.618 29.278 131.618 31.794L131.618 31.794Q131.618 34.310 130.819 36.350Q130.020 38.390 128.626 39.563Q127.232 40.736 125.498 40.736ZM125.498 39.886L125.498 39.886Q129.034 39.886 129.034 31.794L129.034 31.794Q129.034 23.736 125.498 23.736L125.498 23.736Q121.962 23.736 121.962 31.794L121.962 31.794Q121.962 39.886 125.498 39.886ZM137.704 25.266L137.704 25.266Q139.098 22.886 141.070 22.886L141.070 22.886Q142.192 22.886 142.736 23.549Q143.280 24.212 143.280 25.028L143.280 25.028Q143.280 25.674 142.957 26.082Q142.634 26.490 141.954 26.490L141.954 26.490Q141.410 26.490 141.155 26.235Q140.900 25.980 140.747 25.640Q140.594 25.300 140.390 25.045Q140.186 24.790 139.710 24.790L139.710 24.790Q139.098 24.790 138.554 25.521Q138.010 26.252 137.653 27.476Q137.296 28.700 137.296 30.264L137.296 30.264L137.296 38.152Q137.296 38.866 137.517 39.172Q137.738 39.478 138.452 39.546L138.452 39.546L139.370 39.648Q139.744 39.716 139.744 40.022L139.744 40.022Q139.744 40.430 139.234 40.430L139.234 40.430L133.488 40.430Q132.978 40.430 132.978 40.056L132.978 40.056Q132.978 39.750 133.420 39.648L133.420 39.648L133.828 39.580Q134.542 39.444 134.763 39.155Q134.984 38.866 134.984 38.152L134.984 38.152L134.984 26.728Q134.984 26.116 134.797 25.895Q134.610 25.674 134.134 25.606L134.134 25.606L133.420 25.504Q132.978 25.470 132.978 25.130L132.978 25.130Q132.978 24.858 133.522 24.756L133.522 24.756Q134.576 24.586 135.137 24.212Q135.698 23.838 136.310 23.294L136.310 23.294Q136.616 22.988 136.820 22.988L136.820 22.988Q137.126 22.988 137.126 23.396L137.126 23.396L137.126 25.232Q137.126 25.470 137.330 25.521Q137.534 25.572 137.704 25.266ZM152.460 40.736L152.460 40.736Q150.828 40.736 149.400 39.767Q147.972 38.798 146.901 37.098Q145.830 35.398 145.235 33.103Q144.640 30.808 144.640 28.156L144.640 28.156Q144.640 25.504 145.235 23.226Q145.830 20.948 146.901 19.231Q147.972 17.514 149.400 16.562Q150.828 15.610 152.460 15.610L152.460 15.610Q154.092 15.610 155.503 16.562Q156.914 17.514 158.002 19.231Q159.090 20.948 159.685 23.226Q160.280 25.504 160.280 28.156L160.280 28.156Q160.280 30.808 159.685 33.103Q159.090 35.398 158.002 37.098Q156.914 38.798 155.503 39.767Q154.092 40.736 152.460 40.736ZM152.460 39.818L152.460 39.818Q154.874 39.818 156.234 36.928Q157.594 34.038 157.594 28.156L157.594 28.156Q157.594 22.274 156.234 19.401Q154.874 16.528 152.460 16.528L152.460 16.528Q150.080 16.528 148.703 19.401Q147.326 22.274 147.326 28.156L147.326 28.156Q147.326 34.038 148.703 36.928Q150.080 39.818 152.460 39.818ZM167.896 40.736L167.896 40.736Q167.216 40.736 166.383 40.600Q165.550 40.464 164.819 40.260Q164.088 40.056 163.680 39.818L163.680 39.818Q163.442 39.682 163.323 39.529Q163.204 39.376 163.204 39.002L163.204 39.002L163.034 33.664Q163.034 32.984 163.476 32.984L163.476 32.984Q163.850 32.984 163.986 33.596L163.986 33.596L164.292 34.888Q165.448 39.750 168.610 39.750L168.610 39.750Q170.310 39.750 171.313 38.611Q172.316 37.472 172.316 35.398L172.316 35.398Q172.316 33.392 171.279 31.658Q170.242 29.924 167.964 28.224L167.964 28.224Q165.448 26.422 164.292 24.739Q163.136 23.056 163.136 21.152L163.136 21.152Q163.136 18.636 164.887 17.123Q166.638 15.610 169.358 15.610L169.358 15.610Q170.378 15.610 171.330 15.848Q172.282 16.086 172.894 16.528L172.894 16.528Q173.098 16.664 173.217 16.834Q173.336 17.004 173.336 17.276L173.336 17.276L173.438 22.410Q173.438 22.988 172.996 22.988L172.996 22.988Q172.690 22.988 172.554 22.512L172.554 22.512L172.316 21.662Q171.568 19.044 170.769 17.837Q169.970 16.630 168.474 16.630L168.474 16.630Q167.012 16.630 166.145 17.582Q165.278 18.534 165.278 20.268L165.278 20.268Q165.278 21.730 166.230 23.056Q167.182 24.382 169.562 26.286L169.562 26.286Q172.112 28.360 173.285 30.281Q174.458 32.202 174.458 34.378L174.458 34.378Q174.458 36.282 173.608 37.710Q172.758 39.138 171.279 39.937Q169.800 40.736 167.896 40.736Z" fill="#FFFFFF"/>
</svg>